<?xml version="1.0" encoding="UTF-8" standalone="no"?>
<!-- Created with Inkscape (http://www.inkscape.org/) -->

<svg
   width="210mm"
   height="297mm"
   viewBox="0 0 210 297"
   version="1.1"
   id="svg1"
   xml:space="preserve"
   inkscape:version="1.4 (86a8ad7, 2024-10-11)"
   sodipodi:docname="logo.svg"
   xmlns:inkscape="http://www.inkscape.org/namespaces/inkscape"
   xmlns:sodipodi="http://sodipodi.sourceforge.net/DTD/sodipodi-0.dtd"
   xmlns="http://www.w3.org/2000/svg"
   xmlns:svg="http://www.w3.org/2000/svg"><sodipodi:namedview
     id="namedview1"
     pagecolor="#ffffff"
     bordercolor="#000000"
     borderopacity="0.25"
     inkscape:showpageshadow="2"
     inkscape:pageopacity="0.0"
     inkscape:pagecheckerboard="0"
     inkscape:deskcolor="#d1d1d1"
     inkscape:document-units="mm"
     inkscape:zoom="0.68862935"
     inkscape:cx="116.89888"
     inkscape:cy="580.13792"
     inkscape:window-width="1920"
     inkscape:window-height="991"
     inkscape:window-x="-9"
     inkscape:window-y="-9"
     inkscape:window-maximized="1"
     inkscape:current-layer="layer1" /><defs
     id="defs1" /><g
     inkscape:label="Layer 1"
     inkscape:groupmode="layer"
     id="layer1"><g
       id="g28"
       transform="translate(-202.48254,1.5368692)"><path
         style="fill:#d4eaf4"
         d="m 58.934105,151.07951 -2.243117,-2.3151 2.315104,2.24312 c 2.1502,2.08334 2.435631,2.38709 2.243117,2.38709 -0.03959,0 -1.08139,-1.0418 -2.315104,-2.31511 z m -28.305972,-7.67291 -9.391311,-9.45886 9.458854,9.39131 c 8.791043,8.72827 9.577854,9.5264 9.391311,9.5264 -0.03715,0 -4.293633,-4.25648 -9.458854,-9.45885 z m 85.924837,5.84404 c 0.1819,-0.0734 0.47955,-0.0734 0.66145,0 0.18191,0.0734 0.0331,0.13345 -0.33072,0.13345 -0.36381,0 -0.51263,-0.06 -0.33073,-0.13345 z m 12.50156,-0.30984 v -0.30868 l -1.65365,-0.05 -1.65364,-0.05 1.55991,-0.0966 c 1.44898,-0.0897 2.35395,0.20746 1.92818,0.63324 -0.0994,0.0994 -0.1808,0.0419 -0.1808,-0.12788 z m -22.80378,-0.48942 c 0.191,-0.0764 0.4192,-0.067 0.50712,0.0209 0.0879,0.0879 -0.0683,0.15045 -0.34726,0.13896 -0.30823,-0.0127 -0.37092,-0.0754 -0.15986,-0.15985 z m 30.69167,0 c 0.191,-0.0764 0.4192,-0.067 0.50712,0.0209 0.0879,0.0879 -0.0684,0.15045 -0.34727,0.13896 -0.30822,-0.0127 -0.37092,-0.0754 -0.15985,-0.15985 z m 28.575,0 c 0.19099,-0.0764 0.4192,-0.067 0.50712,0.0209 0.0879,0.0879 -0.0684,0.15045 -0.34727,0.13896 -0.30822,-0.0127 -0.37092,-0.0754 -0.15985,-0.15985 z m -98.689583,-0.52917 c 0.190996,-0.0764 0.419199,-0.067 0.507118,0.0209 0.08792,0.0879 -0.06835,0.15045 -0.347266,0.13896 -0.308224,-0.0127 -0.370919,-0.0754 -0.159852,-0.15985 z m -3.000195,-2.26665 -1.844987,-1.91823 1.918229,1.84498 c 1.781651,1.71363 2.039061,1.99148 1.844987,1.99148 -0.04028,0 -0.903486,-0.86321 -1.918229,-1.91823 z m 43.837418,1.38906 c 0,-0.3638 0.0601,-0.51263 0.13345,-0.33073 0.0734,0.1819 0.0734,0.47956 0,0.66146 -0.0734,0.1819 -0.13345,0.0331 -0.13345,-0.33073 z m 56.04988,-4.33323 c 0,-0.0549 0.20836,-0.2633 0.46303,-0.46302 l 0.46302,-0.36313 -0.36313,0.46302 c -0.34564,0.44073 -0.56292,0.58089 -0.56292,0.36313 z m -49.93646,-3.79413 c 0.40218,-0.0608 0.99749,-0.0592 1.32292,0.004 0.32542,0.0628 -0.004,0.11256 -0.73125,0.11057 -0.7276,-0.002 -0.99385,-0.0534 -0.59167,-0.11418 z m 27.51303,3.5e-4 c 0.40018,-0.0606 1.05502,-0.0606 1.45521,0 0.40018,0.0606 0.0728,0.11022 -0.72761,0.11022 -0.80036,0 -1.12778,-0.0496 -0.7276,-0.11022 z m 28.97187,0.0143 c 0.1819,-0.0734 0.47956,-0.0734 0.66146,0 0.1819,0.0734 0.0331,0.13345 -0.33073,0.13345 -0.3638,0 -0.51263,-0.06 -0.33073,-0.13345 z m 0.0165,-3.4451 c 0.19099,-0.0764 0.4192,-0.067 0.50712,0.0209 0.0879,0.0879 -0.0683,0.15046 -0.34727,0.13897 -0.30822,-0.0127 -0.37092,-0.0754 -0.15985,-0.15986 z m -98.639974,-1.50665 c 0,-0.0549 0.20836,-0.2633 0.463021,-0.46302 l 0.463021,-0.36313 -0.363126,0.46302 c -0.345644,0.44073 -0.562916,0.58089 -0.562916,0.36313 z m 65.194654,-0.49542 -0.50403,-0.59531 0.59531,0.50403 c 0.32742,0.27721 0.59532,0.5451 0.59532,0.59531 0,0.21173 -0.21294,0.0554 -0.6866,-0.50403 z m 37.86055,0.0661 c 0.26339,-0.29104 0.53842,-0.52917 0.61118,-0.52917 0.0728,0 -0.0832,0.23813 -0.34659,0.52917 -0.26339,0.29104 -0.53842,0.52917 -0.61118,0.52917 -0.0728,0 0.0832,-0.23813 0.34659,-0.52917 z m -39.43756,-11.24479 c -1.1e-4,-4.51115 0.036,-6.39381 0.0802,-4.1837 0.0442,2.21011 0.0443,5.90105 2e-4,8.20208 -0.0441,2.30104 -0.0803,0.49276 -0.0804,-4.01838 z m -27.78167,0 c -1.2e-4,-4.36563 0.0361,-6.18869 0.0806,-4.05125 0.0444,2.13744 0.0445,5.70931 2.2e-4,7.9375 -0.0443,2.22818 -0.0807,0.47937 -0.0808,-3.88625 z m 17.40666,6.74687 c 0,-0.50932 0.0544,-0.71768 0.121,-0.46302 0.0666,0.25466 0.0666,0.67138 0,0.92604 -0.0666,0.25466 -0.121,0.0463 -0.121,-0.46302 z m -78.336274,-1.5875 c 0,-0.3638 0.06005,-0.51263 0.133452,-0.33073 0.0734,0.1819 0.0734,0.47956 0,0.66146 -0.0734,0.1819 -0.133452,0.0331 -0.133452,-0.33073 z m 25.324475,-6.28385 -0.363126,-0.46302 0.46302,0.36312 c 0.254662,0.19972 0.463021,0.40808 0.463021,0.46302 0,0.21777 -0.217272,0.0776 -0.562915,-0.36312 z m -41.373543,-9.59115 c 5.237234,-5.23875 9.581775,-9.525 9.654536,-9.525 0.07276,0 -4.152718,4.28625 -9.389952,9.525 -5.237234,5.23875 -9.581775,9.525 -9.654535,9.525 -0.07276,0 4.152717,-4.28625 9.389951,-9.525 z m 94.385342,3.96875 c 0,-0.50932 0.0544,-0.71768 0.121,-0.46302 0.0666,0.25466 0.0666,0.67138 0,0.92604 -0.0666,0.25466 -0.121,0.0463 -0.121,-0.46302 z m 50.27617,-0.13229 c 0.003,-0.58208 0.0571,-0.78905 0.12041,-0.45994 0.0633,0.32912 0.0609,0.80537 -0.005,1.05834 -0.0662,0.25296 -0.11801,-0.0163 -0.11507,-0.5984 z m -38.29901,-4.36562 c 0.26339,-0.29105 0.53842,-0.52917 0.61118,-0.52917 0.0728,0 -0.0832,0.23812 -0.3466,0.52917 -0.26339,0.29104 -0.53842,0.52916 -0.61118,0.52916 -0.0728,0 0.0832,-0.23812 0.3466,-0.52916 z M 63.834738,109.2092 c 1.01084,-1.01864 1.897423,-1.85208 1.970183,-1.85208 0.07276,0 -0.694759,0.83344 -1.7056,1.85208 -1.01084,1.01865 -1.897422,1.85209 -1.970183,1.85209 -0.07276,0 0.69476,-0.83344 1.7056,-1.85209 z m 50.075482,-0.18713 c 0.32912,-0.0633 0.80537,-0.0609 1.05833,0.005 0.25297,0.0662 -0.0163,0.11801 -0.5984,0.11507 -0.58208,-0.003 -0.78905,-0.0571 -0.45993,-0.12041 z m 27.51358,4.1e-4 c 0.32742,-0.0631 0.8632,-0.0631 1.19062,0 0.32743,0.0631 0.0595,0.11466 -0.59531,0.11466 -0.65484,0 -0.92273,-0.0516 -0.59531,-0.11466 z m -74.595963,-2.11069 c 0.190996,-0.0764 0.419199,-0.067 0.507118,0.0209 0.08792,0.0879 -0.06835,0.15046 -0.347266,0.13897 -0.308224,-0.0127 -0.370919,-0.0754 -0.159852,-0.15986 z m -7.887891,-3.12655 c 1.230502,-1.23692 2.296807,-2.24895 2.369568,-2.24895 0.07276,0 -0.874483,1.01203 -2.104984,2.24895 -1.230502,1.23693 -2.296807,2.24896 -2.369567,2.24896 -0.07276,0 0.874482,-1.01203 2.104983,-2.24896 z m 54.310764,1.80103 c 0.25743,-0.0671 0.61462,-0.0627 0.79375,0.01 0.17913,0.0725 -0.0315,0.12736 -0.46806,0.12197 -0.43656,-0.005 -0.58312,-0.0647 -0.32569,-0.13177 z m 1.45017,0.008 c 0.1819,-0.0734 0.47956,-0.0734 0.66146,0 0.1819,0.0734 0.0331,0.13345 -0.33073,0.13345 -0.3638,0 -0.51263,-0.0601 -0.33073,-0.13345 z m 26.59063,-0.0143 c 0.40018,-0.0606 1.05502,-0.0606 1.45521,0 0.40018,0.0606 0.0728,0.11022 -0.72761,0.11022 -0.80036,0 -1.12778,-0.0496 -0.7276,-0.11022 z m 22.62187,-0.007 c 1.05503,-0.0502 2.78143,-0.0502 3.83646,0 1.05503,0.0502 0.19182,0.0913 -1.91823,0.0913 -2.11005,0 -2.97325,-0.0411 -1.91823,-0.0913 z"
         id="path41" /><path
         style="fill:#a8d3e9"
         d="m 52.85453,152.79268 c 0,-0.04 0.922734,-0.96275 2.050521,-2.05052 l 2.05052,-1.97775 -1.977753,2.05052 c -1.836893,1.90448 -2.123288,2.17124 -2.123288,1.97775 z m 73.7526,-3.55821 c 0.47295,-0.0587 1.24685,-0.0587 1.71979,0 0.47295,0.0587 0.086,0.10671 -0.85989,0.10671 -0.94589,0 -1.33284,-0.048 -0.8599,-0.10671 z m 8.36829,-4.5711 c 0,-1.67349 0.043,-2.3581 0.0955,-1.52136 0.0525,0.83675 0.0525,2.20597 0,3.04271 -0.0525,0.83675 -0.0955,0.15214 -0.0955,-1.52135 z m -29.13304,1.13956 c 0.25743,-0.0671 0.61462,-0.0627 0.79375,0.01 0.17913,0.0725 -0.0315,0.12736 -0.46806,0.12196 -0.43656,-0.005 -0.58312,-0.0647 -0.32569,-0.13177 z m 2.04548,-1.77271 c 0,-0.0572 0.18478,-0.17489 0.41062,-0.26156 0.23546,-0.0904 0.34166,-0.046 0.24897,0.10399 -0.15538,0.25141 -0.65959,0.37186 -0.65959,0.15757 z m -41.142705,-5.18768 c 2.616342,-2.61938 4.816518,-4.7625 4.889278,-4.7625 0.07276,0 -2.008352,2.14312 -4.624695,4.7625 -2.616343,2.61937 -4.816518,4.7625 -4.889278,4.7625 -0.07276,0 2.008352,-2.14313 4.624695,-4.7625 z m 97.697395,0.0681 c 1.05502,-0.0502 2.78143,-0.0502 3.83646,0 1.05502,0.0502 0.19182,0.0913 -1.91823,0.0913 -2.11005,0 -2.97326,-0.0411 -1.91823,-0.0913 z m -4.46552,-1.06031 -0.36313,-0.46302 0.46302,0.36312 c 0.44073,0.34565 0.58089,0.56292 0.36313,0.56292 -0.0549,0 -0.2633,-0.20836 -0.46302,-0.46302 z m -25.66458,-1.85209 -0.36313,-0.46302 0.46302,0.36313 c 0.25466,0.19972 0.46302,0.40808 0.46302,0.46302 0,0.21776 -0.21727,0.0776 -0.56291,-0.36313 z m -95.154869,-8.53281 c 0,-0.50932 0.05445,-0.71768 0.121,-0.46302 0.06655,0.25466 0.06655,0.67138 0,0.92604 -0.06655,0.25466 -0.121,0.0463 -0.121,-0.46302 z m 27.740753,-0.15434 c 0.0127,-0.30822 0.07539,-0.37092 0.159853,-0.15985 0.07643,0.191 0.06703,0.4192 -0.02089,0.50712 -0.08792,0.0879 -0.150453,-0.0683 -0.138965,-0.34727 z m 97.941086,-3.74603 c 0.98227,-0.0509 2.58961,-0.0509 3.57188,0 0.98226,0.0509 0.17859,0.0926 -1.78594,0.0926 -1.96453,0 -2.7682,-0.0417 -1.78594,-0.0926 z m -98.097022,-7.54286 -4.759743,-4.82864 4.828645,4.75974 c 4.486234,4.42222 4.94819,4.89755 4.759744,4.89755 -0.0379,0 -2.210787,-2.17289 -4.828646,-4.82865 z M 54.706613,104.04983 c -1.084122,-1.09141 -1.9116,-1.98438 -1.838839,-1.98438 0.07276,0 1.0193,0.89297 2.103422,1.98438 1.084123,1.0914 1.9116,1.98437 1.83884,1.98437 -0.07276,0 -1.019301,-0.89297 -2.103423,-1.98437 z"
         id="path40" /><path
         style="fill:#6ecde4"
         d="m 46.173801,147.92772 c 0.181901,-0.0734 0.479557,-0.0734 0.661458,0 0.181901,0.0734 0.03307,0.13346 -0.330729,0.13346 -0.363802,0 -0.51263,-0.0601 -0.330729,-0.13346 z m 57.597509,-25.62164 c 1.3e-4,-4.22011 0.0367,-5.90946 0.0812,-3.75413 0.0445,2.15533 0.0444,5.60815 -2.3e-4,7.67292 -0.0446,2.06477 -0.0811,0.30131 -0.081,-3.91879 z M 46.173801,106.91731 c 0.181901,-0.0734 0.479557,-0.0734 0.661458,0 0.181901,0.0734 0.03307,0.13345 -0.330729,0.13345 -0.363802,0 -0.51263,-0.06 -0.330729,-0.13345 z"
         id="path39" /><path
         style="fill:#8eb2d7"
         d="m 147.63226,145.93535 -0.0569,-3.35822 -1.12448,-0.10128 -1.12448,-0.10128 1.13279,-0.0462 1.13278,-0.0462 0.13282,0.34613 c 0.0731,0.19037 0.0949,1.76795 0.0486,3.50573 l -0.0842,3.1596 z m 9.04408,-0.47823 c 0,-2.11005 0.0411,-2.97326 0.0913,-1.91823 0.0502,1.05503 0.0502,2.78143 0,3.83646 -0.0502,1.05502 -0.0913,0.19182 -0.0913,-1.91823 z m -31.48692,-0.26458 c 0,-1.96454 0.0417,-2.76821 0.0926,-1.78594 0.0509,0.98226 0.0509,2.58961 0,3.57187 -0.0509,0.98227 -0.0926,0.1786 -0.0926,-1.78593 z m 14.01933,-0.52917 c 0,-1.67349 0.043,-2.3581 0.0955,-1.52136 0.0525,0.83675 0.0525,2.20597 0,3.04271 -0.0525,0.83675 -0.0955,0.15214 -0.0955,-1.52135 z m -23.8236,0.79375 c 0,-1.09141 0.0467,-1.53789 0.10379,-0.99219 0.0571,0.5457 0.0571,1.43867 0,1.98438 -0.0571,0.5457 -0.10379,0.0992 -0.10379,-0.99219 z m 2.90828,0.13229 c 0.001,-1.01865 0.049,-1.40294 0.10627,-0.85399 0.0573,0.54894 0.0563,1.38238 -0.002,1.85208 -0.0585,0.4697 -0.10531,0.0206 -0.10414,-0.99809 z m 45.24375,0 c 0.001,-1.01865 0.049,-1.40294 0.10627,-0.85399 0.0573,0.54894 0.0563,1.38238 -0.002,1.85208 -0.0584,0.4697 -0.10531,0.0206 -0.10414,-0.99809 z m 4.23547,-0.13229 c 0,-1.09141 0.0467,-1.53789 0.10379,-0.99219 0.0571,0.5457 0.0571,1.43867 0,1.98438 -0.0571,0.5457 -0.10379,0.0992 -0.10379,-0.99219 z m -121.270802,-6.81302 -4.89211,-4.96094 4.960938,4.89211 c 4.609215,4.54527 5.080453,5.02977 4.892109,5.02977 -0.03785,0 -2.270277,-2.23243 -4.960937,-4.96094 z m 102.330282,3.71588 c 0.32742,-0.0631 0.86321,-0.0631 1.19063,0 0.32742,0.0631 0.0595,0.11466 -0.59532,0.11466 -0.65484,0 -0.92273,-0.0516 -0.59531,-0.11466 z m -97.038616,-8.74297 -4.892109,-4.96093 4.960937,4.89211 c 2.728516,2.69066 4.960938,4.92308 4.960938,4.96093 0,0.18835 -0.484499,-0.28289 -5.029766,-4.89211 z m 42.937245,-6.15156 c 0,-0.65484 0.0516,-0.92273 0.114662,-0.59531 0.06306,0.32742 0.06306,0.8632 0,1.19062 -0.06306,0.32743 -0.114662,0.0595 -0.114662,-0.59531 z m -42.934563,-6.21771 c 2.689186,-2.69213 4.948959,-4.89479 5.02172,-4.89479 0.07276,0 -2.067951,2.20266 -4.757136,4.89479 -2.689185,2.69214 -4.948959,4.8948 -5.021719,4.8948 -0.07276,0 2.06795,-2.20266 4.757135,-4.8948 z m 118.867704,2.32369 c 0.40218,-0.0608 0.99749,-0.0592 1.32291,0.004 0.32542,0.0628 -0.004,0.11256 -0.73124,0.11057 -0.7276,-0.002 -0.99386,-0.0534 -0.59167,-0.11418 z M 46.50453,116.22066 c 2.689185,-2.69213 4.948959,-4.89479 5.021719,-4.89479 0.07276,0 -2.067951,2.20266 -4.757136,4.89479 -2.689185,2.69214 -4.948958,4.89479 -5.021719,4.89479 -0.07276,0 2.067951,-2.20265 4.757136,-4.89479 z"
         id="path38" /><path
         style="fill:#5f9dcd"
         d="m 82.620154,143.34045 c 5.237234,-5.23875 9.581775,-9.525 9.654536,-9.525 0.07276,0 -4.152718,4.28625 -9.389952,9.525 -5.237234,5.23875 -9.581775,9.525 -9.654536,9.525 -0.07276,0 4.152718,-4.28625 9.389952,-9.525 z m 91.987186,2.97656 c -0.0245,-1.63711 0.0448,-2.97684 0.15396,-2.97717 0.10914,-3.4e-4 0.16614,0.92239 0.12668,2.05052 -0.12681,3.62437 -0.23499,3.9816 -0.28064,0.92665 z m -96.881977,-8.13593 c 5.164452,-5.16599 9.449444,-9.39271 9.522205,-9.39271 0.07276,0 -4.09317,4.22672 -9.257622,9.39271 -5.164452,5.16599 -9.449444,9.39271 -9.522205,9.39271 -0.07276,0 4.09317,-4.22672 9.257622,-9.39271 z m 26.479217,5.79878 c 0.0127,-0.30822 0.0754,-0.37092 0.15986,-0.15985 0.0764,0.191 0.067,0.4192 -0.0209,0.50712 -0.0879,0.0879 -0.15045,-0.0684 -0.13897,-0.34727 z m 13.96828,-1.6316 -0.36312,-0.46302 0.46302,0.36313 c 0.44073,0.34564 0.58089,0.56292 0.36312,0.56292 -0.0549,0 -0.2633,-0.20836 -0.46302,-0.46303 z m -40.581167,-25.79687 -9.523622,-9.59115 9.591146,9.52363 c 8.914044,8.85128 9.710138,9.65867 9.523622,9.65867 -0.03714,0 -4.353154,-4.31602 -9.591146,-9.59115 z m 100.641587,6.48229 -0.36313,-0.46302 0.46302,0.36313 c 0.25467,0.19972 0.46302,0.40808 0.46302,0.46302 0,0.21776 -0.21727,0.0776 -0.56291,-0.36313 z m -95.614504,-11.50937 -9.523622,-9.59115 9.591146,9.52362 c 5.27513,5.23799 9.591146,9.55401 9.591146,9.59115 0,0.18651 -0.807382,-0.60958 -9.65867,-9.52362 z m 40.686104,5.17446 c 0.25743,-0.0671 0.61462,-0.0627 0.79375,0.01 0.17913,0.0725 -0.0315,0.12736 -0.46806,0.12197 -0.43656,-0.005 -0.58312,-0.0647 -0.32569,-0.13177 z m 55.5527,-1.13957 c 0,-0.50932 0.0544,-0.71768 0.121,-0.46302 0.0666,0.25466 0.0666,0.67138 0,0.92604 -0.0666,0.25466 -0.121,0.0463 -0.121,-0.46302 z"
         id="path37" /><path
         style="fill:#27b9d8"
         d="m 49.547238,145.7217 c 1.01084,-1.01864 1.897423,-1.85208 1.970183,-1.85208 0.07276,0 -0.694759,0.83344 -1.705599,1.85208 -1.010841,1.01865 -1.897423,1.85209 -1.970183,1.85209 -0.07276,0 0.694759,-0.83344 1.705599,-1.85209 z M 61.58578,133.68316 c 2.689185,-2.69214 4.948958,-4.89479 5.021719,-4.89479 0.07276,0 -2.067951,2.20265 -4.757136,4.89479 -2.689185,2.69214 -4.948959,4.89479 -5.021719,4.89479 -0.07276,0 2.067951,-2.20265 4.757136,-4.89479 z m 47.69177,3.96607 c -2.00649,-1.00381 -3.62034,-2.54443 -4.61204,-4.40279 l -0.61411,-1.15078 v -9.78958 -9.78959 l 0.77519,-1.39922 c 1.20712,-2.17889 3.68549,-4.16535 6.14708,-4.92703 l 0.57228,-0.17707 0.0892,1.71884 0.0892,1.71884 -0.61886,0.15471 c -0.98461,0.24615 -3.05951,2.51015 -3.42336,3.73538 l -0.3234,1.08903 v 7.87611 7.8761 l 0.3234,1.08903 c 0.37448,1.26101 2.4484,3.4913 3.4895,3.7526 l 0.68501,0.17192 v 1.69111 1.69111 h -0.36132 c -0.19873,0 -1.19671,-0.41792 -2.21774,-0.92872 z m 12.76552,-1.98169 c 0.26339,-0.29105 0.53842,-0.52917 0.61118,-0.52917 0.0728,0 -0.0832,0.23812 -0.3466,0.52917 -0.26339,0.29104 -0.53842,0.52916 -0.61118,0.52916 -0.0728,0 0.0832,-0.23812 0.3466,-0.52916 z m 0.20208,-7.86278 c 0.40218,-0.0608 0.99749,-0.0592 1.32291,0.004 0.32542,0.0628 -0.004,0.11256 -0.73124,0.11057 -0.7276,-0.002 -0.99386,-0.0534 -0.59167,-0.11418 z m -60.662052,-6.62316 -4.89211,-4.96094 4.960938,4.89211 c 2.728515,2.69066 4.960937,4.92308 4.960937,4.96094 0,0.18834 -0.484499,-0.2829 -5.029765,-4.89211 z m 60.526122,-4.47471 c 0.1819,-0.0734 0.47955,-0.0734 0.66145,0 0.18191,0.0734 0.0331,0.13345 -0.33072,0.13345 -0.36381,0 -0.51263,-0.0601 -0.33073,-0.13345 z m -72.569078,-7.56383 -1.844987,-1.91823 1.918229,1.84498 c 1.781652,1.71363 2.039061,1.99148 1.844987,1.99148 -0.04028,0 -0.903486,-0.86321 -1.918229,-1.91823 z m 69.426468,1.4552 -0.36312,-0.46302 0.46302,0.36313 c 0.44073,0.34564 0.58089,0.56292 0.36312,0.56292 -0.0549,0 -0.2633,-0.20836 -0.46302,-0.46303 z m 3.05132,-1.71979 -0.50403,-0.59531 0.59532,0.50403 c 0.32742,0.27721 0.59531,0.5451 0.59531,0.59531 0,0.21173 -0.21294,0.0554 -0.6866,-0.50403 z"
         id="path36" /><path
         style="fill:#31a0cd"
         d="m 139.27214,138.54824 c -2.88047,-0.67622 -5.71435,-3.00188 -7.00017,-5.74478 l -0.7039,-1.50155 v -9.0014 -9.00139 l 0.85988,-1.74666 c 1.52092,-3.08943 4.74809,-5.32437 8.21079,-5.68629 l 1.64496,-0.17193 v 1.58833 1.58834 l -1.30483,0.15454 c -2.50203,0.29633 -4.96872,2.21995 -5.55526,4.33221 -0.16919,0.60931 -0.28071,4.16426 -0.28071,8.94842 0,4.78415 0.11152,8.3391 0.28071,8.94841 0.34782,1.25258 1.8531,2.95465 3.23778,3.66106 0.5742,0.29293 1.68365,0.59862 2.46544,0.67931 l 1.42145,0.14671 v 1.55048 1.55049 l -1.12448,-0.0266 c -0.61846,-0.0146 -1.58671,-0.13509 -2.15166,-0.26772 z m 4.10592,-1.21144 c -0.0198,-0.90092 0.0533,-1.69323 0.16241,-1.76069 0.10914,-0.0675 0.16363,0.43153 0.12109,1.10887 -0.13185,2.09954 -0.24589,2.36172 -0.2835,0.65182 z m 2.36432,-0.83235 0.0191,-1.76296 0.97309,-0.79338 c 0.53519,-0.43636 0.81427,-0.59072 0.62016,-0.34302 l -0.35292,0.45036 0.0883,1.83207 0.0883,1.83208 -0.72761,0.2739 -0.7276,0.2739 z m -22.22181,-5.53327 -0.0223,-2.97656 h 0.69701 0.69701 l -0.12834,1.78594 c -0.0707,0.98366 -0.37378,2.32079 -0.67471,2.97656 l -0.54638,1.19062 z m -0.26482,-17.59479 0.022,-3.24115 0.67807,1.43571 0.67807,1.4357 0.12918,1.80544 0.12918,1.80545 h -0.8293 -0.8293 z m 23.53013,-2.70743 c -0.33942,-0.3613 -0.80666,-0.71679 -1.0383,-0.78998 l -0.42118,-0.13307 0.0887,-1.72356 c 0.0488,-0.94796 0.14592,-1.72356 0.21583,-1.72356 0.0699,0 0.3574,0.12325 0.63888,0.27389 l 0.51177,0.27389 v 1.7558 1.75579 l 0.43788,0.48385 c 0.66523,0.73507 0.27214,0.57819 -0.43361,-0.17305 z m -3.62375,-3.31184 c 0,-0.94589 0.048,-1.33284 0.10671,-0.8599 0.0587,0.47295 0.0587,1.24685 0,1.71979 -0.0587,0.47295 -0.10671,0.086 -0.10671,-0.85989 z"
         id="path35" /><path
         style="fill:#16abd2"
         d="m 38.035991,140.49618 -7.009586,-7.0776 7.077604,7.00958 c 6.577062,6.51386 7.196803,7.14563 7.009586,7.14563 -0.03741,0 -3.222332,-3.18493 -7.077604,-7.07761 z m 74.283639,-1.83603 -0.46302,-0.121 v -1.53277 -1.53277 l 1.81465,0.12983 c 2.83075,0.20254 5.09911,-0.79637 6.54442,-2.88196 l 0.72908,-1.05206 0.15228,-1.77125 0.15228,-1.77126 1.12448,-0.0814 1.12448,-0.0814 v 3.06926 3.06926 l -1.21871,1.30289 c -1.49079,1.59378 -3.0097,2.5108 -5.03066,3.03719 -1.44745,0.37701 -3.90386,0.48533 -4.92928,0.21736 z M 35.788905,116.61754 c 5.09167,-5.09323 9.317113,-9.26042 9.389873,-9.26042 0.07276,0 -4.03362,4.16719 -9.12529,9.26042 -5.091669,5.09322 -9.317112,9.26041 -9.389873,9.26041 -0.07276,0 4.03362,-4.16719 9.12529,-9.26041 z m 85.481005,-0.59532 c -0.067,-0.32742 -0.174,-1.16356 -0.2378,-1.85808 l -0.11602,-1.26278 -0.75316,-1.08681 c -1.43578,-2.07183 -3.88223,-3.06309 -6.87095,-2.784 l -1.69995,0.15874 v -1.54447 -1.54447 l 0.82682,-0.16537 c 2.18849,-0.43769 5.50902,0.10724 7.36006,1.20786 0.51769,0.30782 1.50679,1.10255 2.19801,1.76609 l 1.25678,1.20642 v 3.25109 3.2511 h -0.92101 -0.921 z"
         id="path34" /><path
         style="fill:#2d92c6"
         d="m 142.54828,137.25504 v -1.5875 h 0.39687 0.39688 v 1.5875 1.5875 h -0.39688 -0.39687 z m 1.11194,-0.0441 0.0787,-1.62459 0.99219,-0.34244 0.99219,-0.34244 v 1.7009 1.7009 l -0.72761,0.15943 c -0.40018,0.0877 -0.88207,0.20744 -1.07086,0.26613 l -0.34327,0.1067 z m 3.38598,-1.4523 v -1.76097 l 0.60427,-0.81872 c 0.33235,-0.4503 0.74907,-1.15175 0.92604,-1.55878 l 0.32177,-0.74005 v -8.57406 -8.57406 l -0.31911,-0.74006 c -0.17551,-0.40703 -0.65176,-1.1739 -1.05833,-1.70417 l -0.73923,-0.96411 v -1.75466 -1.75466 l 0.80956,0.41864 c 1.1468,0.59303 2.85977,2.19611 3.60052,3.36954 0.34699,0.54967 0.814,1.71413 1.0378,2.58769 l 0.4069,1.58829 -0.1012,8.26169 -0.1012,8.2617 -0.35087,0.97208 c -0.19297,0.53464 -0.78114,1.54136 -1.30702,2.23716 -0.92783,1.22762 -2.99129,3.00847 -3.48589,3.00847 -0.13421,0 -0.24401,-0.79243 -0.24401,-1.76096 z m -2.97657,-26.59239 -0.7276,-0.26575 v -1.57049 -1.57049 l 0.7276,0.15943 c 0.40018,0.0877 0.87643,0.20528 1.05834,0.26132 l 0.33073,0.10189 v 1.5958 1.59581 l -0.33073,-0.0209 c -0.18191,-0.0115 -0.65816,-0.14048 -1.05834,-0.28663 z m -1.78593,-1.80915 v -1.5875 h 0.39687 0.39688 v 1.5875 1.5875 h -0.39688 -0.39687 z"
         id="path33" /><path
         style="fill:#0096d9"
         d="m 44.489114,155.01223 c -0.453635,-0.11743 -1.406135,-0.48659 -2.116667,-0.82036 l -1.291875,-0.60686 -10.347802,-10.3478 -10.347801,-10.3478 -0.577611,-1.23146 c -0.317687,-0.6773 -0.710903,-1.9482 -0.873814,-2.82421 l -0.296203,-1.59275 0.440031,-1.78312 c 0.242016,-0.98072 0.791734,-2.3292 1.221593,-2.99663 0.42986,-0.66742 5.281573,-5.6915 10.781585,-11.16461 l 10.000022,-9.95112 1.5875,-0.75405 1.5875,-0.754058 2.254521,-0.01045 2.254522,-0.01045 1.714228,0.848288 1.714228,0.84828 10.23989,10.26422 10.23989,10.26421 0.73459,1.5875 0.73459,1.5875 0.0057,2.25453 0.0057,2.25452 -0.849082,1.71423 -0.849082,1.71422 -5.301105,5.28781 -5.301104,5.28782 -2.513306,-2.50286 -2.513306,-2.50286 5.157763,-5.18128 5.157764,-5.18128 v -0.90267 -0.90266 l -9.708974,-9.72207 -9.708974,-9.72206 -0.722756,-0.15875 c -0.424507,-0.0932 -1.030975,0.004 -1.469672,0.23484 -0.410804,0.21647 -4.935056,4.59957 -10.053894,9.74022 l -9.306979,9.34664 -0.181042,0.72953 -0.181042,0.72953 0.393927,0.59339 c 0.758354,1.14233 18.530546,19.01008 19.308618,19.41243 1.205225,0.62325 1.9873,0.26087 4.234927,-1.96228 l 2.051014,-2.02867 2.513044,2.5026 2.513044,2.50259 -2.3151,2.33233 -2.3151,2.33233 -1.602411,0.79285 -1.602412,0.79286 -1.837171,0.1107 c -1.010445,0.0609 -2.208328,0.0146 -2.661963,-0.10279 z"
         id="path32" /><path
         style="fill:#1a83be"
         d="m 160.85475,138.30659 c -0.4817,-0.29369 -1.04724,-0.94426 -1.25677,-1.44573 l -0.38095,-0.91175 v -13.64303 -13.64304 l 0.38095,-0.91175 c 0.20953,-0.50146 0.77507,-1.15204 1.25677,-1.44572 l 0.87582,-0.53397 2.4474,-9.9e-4 2.44739,-9.9e-4 v 1.5875 1.5875 h -1.85208 -1.85209 v 5.68854 5.68854 h 1.85209 1.85208 v 1.5875 1.5875 h -1.85208 -1.85209 v 6.08542 6.08542 h 1.98438 1.98437 v 1.5875 1.5875 l -2.57968,-9.9e-4 -2.57969,-9.9e-4 z m -106.682529,-24.53333 -2.508316,-2.57968 2.579687,2.50831 c 2.395987,2.3297 2.700045,2.65106 2.508316,2.65106 -0.03925,0 -1.200113,-1.16086 -2.579687,-2.57969 z m 5.027083,-5.29166 -2.508316,-2.57969 2.579688,2.50832 c 2.395986,2.32969 2.700044,2.65106 2.508316,2.65106 -0.03926,0 -1.200114,-1.16086 -2.579688,-2.57969 z"
         id="path31" /><path
         style="fill:#3072b7"
         d="m 65.279928,155.0178 c -0.514832,-0.10929 -1.526863,-0.47637 -2.248958,-0.81572 l -1.312899,-0.617 -10.477141,-10.48013 -10.477141,-10.48012 -0.624929,-1.32292 -0.624929,-1.32292 v -2.51354 -2.51354 l 0.632032,-1.32292 0.632031,-1.32291 5.435186,-5.49618 5.435186,-5.49618 2.515992,2.51599 2.515993,2.516 -5.087911,5.1123 -5.08791,5.1123 v 0.90229 0.90229 l 9.723437,9.74096 c 5.347891,5.35753 9.993639,9.80983 10.323886,9.894 0.330247,0.0842 0.932949,0.0153 1.33934,-0.15301 0.40639,-0.16834 4.980298,-4.55737 10.16424,-9.75341 l 9.425349,-9.44735 0.170904,-0.69911 c 0.103839,-0.42477 0.01351,-0.99582 -0.230179,-1.45521 -0.220595,-0.41585 -4.609742,-4.95634 -9.753659,-10.08997 l -9.352576,-9.33388 -0.980805,-0.15916 -0.980804,-0.15916 -2.197058,2.14449 -2.197057,2.1445 -2.496455,-2.50688 -2.496454,-2.50688 2.22465,-2.23627 2.224651,-2.23626 1.738566,-0.85699 1.738565,-0.856977 2.12216,-0.01591 2.122159,-0.01591 1.714299,0.847137 1.714299,0.84714 10.484243,10.52994 10.484243,10.52995 0.562111,1.53128 0.562111,1.53128 v 1.83223 1.83223 l -0.562111,1.53128 -0.562111,1.53128 -10.484243,10.52995 -10.484243,10.52994 -1.5875,0.78111 -1.5875,0.7811 -1.5875,0.11709 c -0.873125,0.0644 -2.008727,0.0277 -2.52356,-0.0816 z m 39.865492,-6.40489 c -0.67843,-0.53364 -0.9638,-1.56829 -0.43256,-1.56829 0.14552,0 0.26459,0.17009 0.26459,0.37797 0,0.57131 0.75619,1.20953 1.4331,1.20953 0.78183,0 1.47731,-0.78392 1.47731,-1.66517 0,-0.79883 -0.64302,-1.24525 -1.79368,-1.24525 -1.01151,0 -1.6459,-0.73998 -1.6459,-1.91986 v -0.95215 l 0.72343,-0.56905 0.72343,-0.56905 0.79792,0.15377 c 0.83342,0.16061 1.72397,1.00608 1.72397,1.6367 0,0.58173 -0.4166,0.42819 -0.73515,-0.27095 -0.39211,-0.86058 -1.24834,-1.09711 -2.05593,-0.56796 l -0.6485,0.42492 v 0.89163 0.89164 l 0.41851,0.1606 c 0.23018,0.0883 0.76596,0.1606 1.19063,0.1606 1.00338,0 1.83044,0.84226 1.83044,1.86411 v 0.80577 l -0.64943,0.64943 c -0.79367,0.79367 -1.69739,0.8285 -2.62218,0.10106 z m 10.38166,0.0451 -0.62148,-0.50325 -0.0977,-2.15147 c -0.11523,-2.53744 0.21618,-3.54429 1.31668,-4.00012 l 0.78297,-0.32432 0.63554,0.28957 c 0.34955,0.15926 0.83274,0.59053 1.07376,0.95837 l 0.43821,0.6688 -0.0935,2.27706 -0.0935,2.27707 -0.6246,0.50577 c -0.79664,0.64507 -1.92152,0.64612 -2.71634,0.003 z m 2.41495,-0.55509 0.52917,-0.52916 v -1.99641 -1.9964 l -0.66587,-0.66586 -0.66586,-0.66586 -0.59091,0.17543 c -1.01076,0.3001 -1.25236,0.89486 -1.25236,3.083 v 2.0661 l 0.52916,0.52916 c 0.29104,0.29104 0.76729,0.52917 1.05834,0.52917 0.29104,0 0.76729,-0.23813 1.05833,-0.52917 z m 7.40833,-2.64583 v -3.70417 h 0.26459 c 0.16282,0 0.26458,1.32292 0.26458,3.43959 v 3.43958 h 1.5875 c 0.88194,0 1.5875,0.11759 1.5875,0.26458 0,0.15119 -0.79375,0.26459 -1.85208,0.26459 h -1.85209 z m 10.43902,3.05473 -0.64943,-0.64943 v -3.05473 c 0,-1.8601 0.10347,-3.05474 0.26458,-3.05474 0.16084,0 0.26458,1.17696 0.26458,3.0017 v 3.0017 l 0.48386,0.43789 c 0.63477,0.57446 1.44412,0.55575 1.98868,-0.046 l 0.43788,-0.48385 v -2.95573 c 0,-1.7941 0.10398,-2.95573 0.26458,-2.95573 0.1616,0 0.26459,1.22832 0.26459,3.1558 v 3.15579 l -0.69714,0.54837 c -0.92479,0.72744 -1.82851,0.69261 -2.62218,-0.10106 z m 11.99232,-2.724 -0.074,-3.37344 -1.12448,-0.0814 c -2.14021,-0.15485 -1.12194,-0.5801 1.38907,-0.5801 1.4993,0 2.51354,0.10676 2.51354,0.26459 0,0.14552 -0.47625,0.26458 -1.05834,0.26458 h -1.05833 v 3.43958 c 0,4.52375 -0.48835,4.57874 -0.58741,0.0661 z m 9.05408,-0.33073 v -3.70417 h 0.26458 0.26458 v 3.70417 3.70417 h -0.26458 -0.26458 z m 7.5763,3.15579 -0.69714,-0.54837 v -2.46502 -2.46503 l 0.46303,-0.55768 c 0.25466,-0.30672 0.84208,-0.63088 1.30537,-0.72033 l 0.84236,-0.16266 0.679,0.679 0.67899,0.679 v 2.50636 2.50636 l -0.69714,0.54837 c -0.38342,0.30161 -0.96268,0.54838 -1.28723,0.54838 -0.32455,0 -0.90381,-0.24677 -1.28724,-0.54838 z m 2.31535,-0.47657 0.44867,-0.49577 -0.0769,-2.33917 -0.0769,-2.33917 -0.69712,-0.39046 -0.69712,-0.39046 -0.69194,0.45338 -0.69195,0.45338 v 2.28817 2.28817 l 0.43788,0.48385 c 0.56417,0.6234 1.4753,0.61809 2.04544,-0.0119 z m 7.30626,-2.53131 c 0,-1.95595 0.10422,-3.62067 0.2316,-3.6994 0.12737,-0.0787 1.10964,1.18548 2.18281,2.80933 l 1.95122,2.95246 0.0748,-2.95723 0.0748,-2.95724 h 0.38821 0.38821 v 3.55626 c 0,2.00999 -0.11149,3.62517 -0.25642,3.71474 -0.14103,0.0872 -1.1233,-1.15305 -2.18281,-2.75603 -1.05952,-1.60298 -2.01569,-2.91743 -2.12483,-2.92099 -0.10914,-0.004 -0.19844,1.30321 -0.19844,2.90394 0,1.76389 -0.10423,2.91042 -0.26458,2.91042 h -0.26459 z m 5.46691,-15.48747 c -0.0964,-1.35785 -0.16553,-3.19467 -0.15366,-4.08182 l 0.0216,-1.613 0.42216,0.92605 0.42217,0.92604 -0.006,2.51354 c -0.003,1.38245 -0.124,2.80254 -0.26851,3.15577 l -0.26276,0.64223 z"
         id="path30" /><path
         style="fill:#1477b9"
         d="m 166.88994,137.31979 v -1.59071 l 2.57969,-0.11261 2.57969,-0.11262 1.05833,-0.56169 c 1.4648,-0.77742 2.48616,-1.80429 3.06722,-3.08375 l 0.49304,-1.08567 0.006,-1.93136 c 0.007,-2.16656 -0.34023,-3.06883 -1.58041,-4.11237 -1.14386,-0.9625 -2.36215,-1.22914 -5.62368,-1.23083 l -2.84427,-0.001 v -1.5875 -1.5875 h 2.60422 2.60422 l 1.16609,-0.61516 1.1661,-0.61516 0.59096,-1.03849 0.59096,-1.03848 0.003,-1.32292 c 0.002,-0.7276 -0.12344,-1.77782 -0.27783,-2.33383 -0.35005,-1.26057 -1.85326,-2.95323 -3.27017,-3.68228 l -1.07638,-0.55384 -2.05052,-0.12246 -2.05052,-0.12245 v -1.59267 -1.59267 l 2.37236,0.1537 2.37237,0.1537 1.73043,0.82586 c 2.03867,0.97297 4.05229,2.88384 4.93,4.67843 l 0.6251,1.2781 0.10013,2.0907 c 0.1204,2.51411 -0.20122,3.70983 -1.43133,5.32136 l -0.92763,1.21526 1.43246,1.37488 1.43247,1.37488 0.17818,4.28541 0.17819,4.28541 -0.38436,0.74167 c -0.2114,0.40792 -0.88035,1.30456 -1.48656,1.99254 l -1.10221,1.25086 -1.98061,0.97887 -1.98062,0.97887 -2.89689,0.11936 -2.8969,0.11936 z"
         id="path29" /></g></g></svg>
